<svg xmlns="http://www.w3.org/2000/svg" width="32" height="32" viewBox="0 0 32 32">
  <!-- Dolphin Gang Tour 原创图标 - 像素风海豚（非 Flipper Zero 官方设计） -->
  <rect width="32" height="32" fill="#000000"/>
  <!-- 海豚身体：跳跃姿态 -->
  <path d="M6 20 L8 18 L11 16 L15 15 L19 15 L22 16 L24 18 L25 20 L24 21 L22 20 L19 19 L15 19 L12 20 L9 21 L7 21 Z" fill="#FF8C00" shape-rendering="crispEdges"/>
  <!-- 背鳍 -->
  <path d="M14 15 L15 12 L17 11 L18 12 L17 15 Z" fill="#FF8C00" shape-rendering="crispEdges"/>
  <!-- 尾鳍 -->
  <path d="M6 20 L4 18 L3 19 L4 21 L6 21 Z" fill="#FF8C00" shape-rendering="crispEdges"/>
  <path d="M6 21 L4 22 L3 23 L5 23 L6 22 Z" fill="#FF8C00" shape-rendering="crispEdges"/>
  <!-- 眼睛 -->
  <rect x="21" y="17" width="1.5" height="1.5" fill="#00FF41" shape-rendering="crispEdges"/>
  <!-- 嘴部高光 -->
  <rect x="25" y="19" width="1" height="1" fill="#FFCC00" shape-rendering="crispEdges"/>
</svg>
